<?xml version="1.0" standalone="no"?>
<!DOCTYPE svg PUBLIC "-//W3C//DTD SVG 20010904//EN"
 "http://www.w3.org/TR/2001/REC-SVG-20010904/DTD/svg10.dtd">
<svg version="1.0" xmlns="http://www.w3.org/2000/svg"
 width="916.000000pt" height="916.000000pt" viewBox="0 0 916.000000 916.000000"
 preserveAspectRatio="xMidYMid meet">
<metadata>
Created by potrace 1.14, written by Peter Selinger 2001-2017
</metadata>
<g transform="translate(0.000000,916.000000) scale(0.100000,-0.100000)"
fill="#000000" stroke="none">
<path d="M2396 6334 c-3 -8 -2 -12 4 -9 6 3 10 1 10 -5 0 -17 42 -49 65 -50
17 0 17 -2 5 -10 -13 -8 -12 -10 3 -10 9 0 17 -4 17 -10 0 -5 6 -10 13 -10 8
0 22 -9 32 -20 10 -11 24 -20 32 -20 7 0 13 -7 13 -16 0 -8 4 -13 9 -10 4 3
22 -10 40 -29 29 -32 42 -40 64 -36 5 1 6 -3 2 -9 -3 -5 1 -13 9 -16 9 -3 16
-13 16 -21 0 -8 9 -17 20 -20 11 -3 20 -12 20 -20 0 -8 5 -11 10 -8 6 3 10 0
10 -8 0 -8 7 -18 16 -21 8 -3 13 -10 9 -15 -3 -5 4 -12 15 -16 11 -3 20 -11
20 -16 0 -5 9 -19 20 -31 11 -12 20 -27 20 -34 0 -7 9 -16 20 -19 11 -3 20
-15 20 -25 0 -10 5 -22 10 -25 6 -4 8 -10 5 -15 -3 -4 2 -10 10 -14 8 -3 15
-15 15 -26 0 -11 3 -20 8 -20 4 0 13 -9 20 -21 8 -12 9 -18 3 -14 -6 3 -11 1
-11 -4 0 -6 5 -11 10 -11 6 0 10 -9 10 -20 0 -11 5 -20 11 -20 5 0 7 -5 3 -12
-4 -6 1 -17 11 -25 12 -8 14 -13 5 -13 -9 0 -8 -6 6 -22 10 -12 13 -18 7 -14
-7 4 -13 2 -13 -3 0 -6 4 -11 9 -11 4 0 7 -18 6 -40 -1 -24 2 -40 9 -40 6 0 4
-5 -4 -10 -11 -7 -11 -10 -2 -10 8 0 10 -5 6 -12 -12 -19 -12 -48 -1 -48 5 0
5 -5 -1 -13 -7 -8 -7 -18 -2 -27 5 -8 6 -19 2 -24 -3 -6 -7 -27 -8 -48 -1 -20
-5 -42 -9 -47 -3 -6 0 -11 7 -11 9 0 10 -3 2 -8 -11 -7 -31 -56 -23 -58 2 0
-2 -8 -9 -16 -10 -13 -10 -17 0 -21 8 -4 7 -6 -4 -6 -10 -1 -18 -7 -18 -13 0
-7 -7 -25 -14 -40 -9 -16 -10 -28 -5 -28 6 0 7 -5 4 -10 -4 -6 -11 -8 -16 -5
-8 6 -13 -11 -12 -42 1 -7 -3 -10 -8 -8 -4 3 -15 -8 -24 -25 -8 -16 -12 -30
-8 -30 5 0 0 -5 -9 -11 -10 -5 -18 -14 -18 -20 0 -10 -9 -23 -41 -58 -8 -9
-13 -23 -11 -31 3 -7 0 -10 -5 -7 -5 3 -17 -3 -26 -14 -9 -10 -12 -19 -6 -19
5 0 7 -5 4 -11 -4 -6 -9 -8 -12 -5 -6 6 -63 -48 -63 -60 0 -4 -11 -17 -25 -30
-14 -13 -25 -29 -25 -35 0 -7 -3 -10 -6 -6 -10 10 -36 -22 -28 -35 4 -7 4 -10
-1 -6 -5 5 -15 -1 -22 -12 -8 -11 -19 -18 -24 -15 -5 3 -6 -1 -3 -10 4 -10 2
-15 -7 -13 -8 2 -13 -3 -11 -9 1 -7 -1 -13 -5 -13 -14 0 -63 -47 -63 -60 0 -7
-3 -11 -6 -7 -8 8 -34 -18 -34 -33 0 -6 -5 -8 -10 -5 -6 3 -13 -1 -16 -9 -3
-9 -9 -14 -13 -12 -10 5 -130 -122 -123 -130 4 -4 1 -4 -6 1 -10 5 -29 -8 -60
-41 -25 -27 -41 -43 -37 -35 5 9 4 12 -3 7 -7 -4 -12 -14 -12 -22 0 -8 -4 -13
-9 -9 -5 3 -12 -4 -16 -15 -4 -11 -10 -18 -15 -15 -5 3 -11 1 -15 -5 -4 -6
-10 -8 -15 -5 -4 3 -10 -5 -13 -16 -3 -11 -15 -23 -26 -26 -12 -3 -21 -12 -21
-19 0 -8 -6 -13 -12 -12 -7 2 -12 -3 -10 -9 1 -7 -6 -13 -17 -13 -10 0 -30
-14 -44 -31 -16 -19 -30 -28 -38 -23 -8 4 -10 3 -5 -4 4 -7 2 -12 -4 -12 -6 0
-8 -5 -4 -12 4 -6 3 -8 -4 -4 -6 3 -22 -6 -36 -21 -14 -15 -26 -24 -26 -20 0
4 -8 -1 -18 -10 -11 -10 -17 -21 -15 -26 3 -4 0 -6 -5 -5 -12 3 -49 -20 -71
-44 -8 -10 -21 -18 -28 -18 -6 0 -17 -8 -22 -17 -6 -10 -11 -14 -11 -9 0 5
-11 -3 -24 -17 -13 -14 -27 -23 -30 -20 -3 4 -6 1 -6 -6 0 -7 -4 -10 -9 -7 -5
3 -11 -1 -15 -9 -3 -8 -13 -15 -21 -15 -9 0 -13 -4 -10 -10 3 -5 0 -10 -9 -10
-8 0 -16 -3 -18 -7 -4 -10 -75 -63 -84 -63 -4 0 -13 -8 -21 -17 -9 -11 -12
-12 -7 -3 7 15 -37 -19 -68 -53 -10 -11 -18 -14 -18 -8 0 7 -5 9 -10 6 -6 -4
-8 -11 -5 -16 4 -5 -1 -9 -9 -9 -9 0 -16 -4 -16 -9 0 -5 -11 -12 -25 -15 -14
-4 -23 -11 -20 -16 3 -6 -1 -11 -9 -11 -30 -3 -34 -4 -43 -13 -5 -5 -2 -6 6
-1 9 5 12 4 7 -3 -4 -7 -14 -12 -22 -12 -8 0 -14 -5 -14 -11 0 -5 -5 -7 -10
-4 -6 3 -13 -1 -16 -9 -3 -9 -10 -13 -15 -10 -5 3 -12 -2 -15 -10 -3 -9 -10
-14 -14 -11 -4 3 -11 -2 -14 -11 -3 -8 -10 -12 -16 -9 -5 3 -10 -1 -10 -10 0
-9 -4 -14 -9 -11 -13 8 -42 -4 -35 -15 3 -5 0 -9 -7 -9 -6 0 -18 -8 -26 -17
-8 -10 -12 -12 -8 -6 4 9 1 11 -9 7 -9 -3 -16 -10 -16 -16 0 -5 -4 -7 -9 -4
-5 3 -12 -1 -15 -10 -4 -9 -9 -14 -12 -11 -9 8 -33 -16 -26 -27 3 -5 0 -6 -6
-2 -15 9 -54 -12 -47 -25 4 -5 1 -8 -7 -7 -7 2 -12 -3 -10 -11 2 -10 0 -12
-10 -4 -14 11 -52 -19 -40 -33 4 -4 1 -4 -5 0 -17 9 -75 -25 -69 -41 3 -7 -1
-10 -8 -7 -8 3 -24 -5 -36 -18 -13 -13 -19 -16 -15 -8 8 13 6 13 -8 1 -9 -7
-14 -18 -10 -24 3 -6 1 -7 -5 -3 -7 4 -12 2 -12 -3 0 -6 -6 -11 -14 -11 -15 0
-28 -23 -31 -52 -2 -18 6 -22 34 -19 7 2 11 -1 8 -6 -3 -4 17 -9 44 -11 34 -2
49 1 50 10 0 7 4 4 9 -7 5 -11 9 -15 9 -8 1 16 122 7 133 -10 4 -6 8 -7 8 -2
0 15 40 16 40 2 0 -7 4 -6 10 3 9 13 10 13 10 0 0 -9 3 -11 8 -5 10 14 52 17
52 4 0 -6 5 -7 13 -2 20 13 41 13 49 0 4 -7 8 -7 8 -2 0 6 11 11 25 11 16 1
22 -2 18 -10 -4 -6 1 -5 10 3 14 11 17 11 17 0 0 -9 3 -10 8 -4 11 15 46 19
36 4 -5 -8 -3 -9 7 -3 21 13 43 14 50 2 4 -6 12 -7 20 -2 19 11 99 13 99 2 0
-6 7 -5 16 3 13 10 17 10 24 -1 6 -10 9 -8 13 6 4 17 5 17 6 1 0 -10 6 -15 12
-12 18 12 59 13 59 1 0 -7 3 -7 8 -1 9 12 42 13 61 1 9 -6 12 -5 8 1 -8 12 47
12 59 0 4 -4 13 -2 21 4 7 6 24 9 38 7 14 -3 28 -1 32 5 4 6 1 7 -7 2 -9 -5
-11 -4 -6 4 4 6 13 8 19 4 7 -4 21 -8 32 -8 11 0 25 -4 32 -8 6 -4 19 0 27 9
10 9 16 11 16 4 0 -7 6 -10 14 -7 7 3 18 1 23 -4 7 -7 16 -5 27 6 9 9 16 13
16 8 0 -5 23 -9 50 -10 37 -2 49 1 44 10 -5 9 -3 9 7 0 7 -7 26 -13 41 -13 15
0 28 6 29 13 0 6 4 3 9 -8 5 -11 9 -15 9 -9 1 12 150 12 169 0 6 -3 18 1 26
10 10 9 16 11 16 4 0 -7 6 -10 14 -7 7 3 18 1 23 -4 7 -7 16 -5 27 6 9 9 16
13 16 8 0 -5 23 -9 50 -10 37 -2 49 1 44 10 -5 9 -3 9 7 -1 17 -16 69 -16 70
1 0 6 4 3 9 -8 5 -11 9 -15 9 -9 1 12 150 12 169 0 6 -3 18 1 26 10 10 9 16
11 16 4 0 -7 6 -10 14 -7 7 3 18 1 23 -4 7 -7 16 -5 27 6 9 9 16 13 16 8 0 -5
23 -9 50 -10 37 -2 49 1 44 10 -5 9 -3 9 7 0 7 -7 26 -13 41 -13 15 0 28 6 29
13 0 6 4 3 9 -8 5 -11 9 -15 9 -9 1 12 150 12 169 0 6 -3 18 1 26 10 10 9 16
11 16 4 0 -7 6 -10 14 -7 7 3 18 1 23 -4 7 -7 16 -5 27 6 9 9 16 13 16 8 0 -5
23 -9 50 -10 37 -2 49 1 44 10 -5 9 -3 9 7 0 7 -7 26 -13 41 -13 15 0 28 6 29
13 0 6 4 3 9 -8 5 -11 9 -15 9 -9 1 12 150 12 169 0 6 -3 18 1 26 10 10 9 16
11 16 4 0 -7 6 -10 14 -7 7 3 18 1 23 -4 7 -7 16 -5 27 6 9 9 16 12 16 7 0
-14 90 -14 91 0 0 7 4 4 9 -7 5 -11 9 -15 9 -8 1 8 22 10 71 7 53 -4 70 -2 71
8 0 7 4 4 9 -7 5 -11 9 -15 9 -8 1 8 22 10 71 7 53 -4 70 -2 71 8 0 7 4 4 9
-7 5 -11 9 -15 9 -8 1 8 22 10 71 7 53 -4 70 -2 71 8 0 7 4 4 9 -7 5 -11 9
-15 9 -8 1 8 22 10 71 7 53 -4 70 -2 71 8 0 7 4 4 9 -7 5 -11 9 -15 9 -8 1 8
22 10 71 7 53 -4 70 -2 71 8 0 7 4 4 9 -7 5 -11 9 -15 9 -8 1 8 22 10 71 7 53
-4 70 -2 71 8 0 7 4 4 9 -7 5 -11 9 -15 9 -8 1 8 22 10 71 7 53 -4 70 -2 71 8
0 7 4 4 9 -7 5 -11 9 -15 9 -8 1 8 22 10 71 7 53 -4 70 -2 71 8 0 7 4 4 9 -7
5 -11 9 -15 9 -8 1 8 22 10 71 7 53 -4 70 -2 71 8 0 7 4 4 9 -7 5 -11 9 -15 9
-8 1 8 22 10 71 7 53 -4 70 -2 71 8 0 7 4 4 9 -7 5 -11 9 -15 9 -8 1 8 22 10
71 7 53 -4 70 -2 71 8 0 7 4 4 9 -7 5 -11 9 -15 9 -8 1 8 22 10 71 7 53 -4 70
-2 71 8 0 7 4 4 9 -7 5 -11 9 -15 9 -8 1 8 22 10 71 7 53 -4 70 -2 71 8 0 7 4
4 9 -7 5 -11 9 -15 9 -8 1 8 22 10 71 7 53 -4 70 -2 71 8 0 7 4 4 9 -7 5 -11
9 -15 9 -8 1 8 21 10 68 7 47 -3 69 -1 75 8 5 9 8 7 8 -7 0 -12 3 -16 8 -9 8
12 70 13 89 1 6 -4 19 0 27 9 10 9 16 11 16 4 0 -7 6 -10 14 -7 7 3 18 1 23
-4 7 -7 16 -5 27 6 9 9 16 13 16 8 0 -5 23 -9 50 -10 37 -2 49 1 44 10 -5 9
-3 9 7 -1 17 -16 69 -16 70 1 0 6 4 3 9 -8 5 -11 9 -15 9 -9 1 12 150 12 169
0 6 -3 18 1 26 10 10 9 16 11 16 4 0 -7 6 -10 14 -7 7 3 18 1 23 -4 7 -7 16
-5 27 6 9 9 16 13 16 8 0 -5 23 -9 50 -10 37 -2 49 1 44 10 -5 9 -3 9 7 -1 17
-16 69 -16 70 1 0 6 4 3 9 -8 5 -11 9 -15 9 -9 1 12 150 12 169 0 6 -3 18 1
26 10 10 9 16 11 16 4 0 -7 7 -10 15 -7 8 4 17 1 21 -5 4 -7 10 -5 16 6 7 13
13 14 23 6 9 -7 15 -8 19 -1 4 6 13 8 21 4 9 -3 15 1 15 8 0 11 3 11 10 -1 8
-12 10 -12 10 -1 0 8 3 11 7 8 3 -4 13 -1 21 6 13 9 14 9 8 0 -5 -9 -2 -11 8
-7 9 3 16 10 16 16 0 5 5 6 10 3 6 -4 17 -1 25 5 8 7 15 9 15 4 0 -5 7 0 15
10 8 11 15 15 15 10 0 -6 7 -11 15 -11 8 0 12 4 9 9 -3 4 2 8 10 8 9 0 16 4
16 8 0 4 10 9 22 9 13 1 24 7 26 13 2 5 10 10 18 10 8 0 14 5 14 11 0 5 4 8 9
4 5 -3 16 1 24 9 8 8 17 12 21 9 3 -4 6 -2 6 4 0 6 8 10 18 9 9 0 16 5 15 11
-2 7 0 12 5 12 21 -4 32 2 26 14 -6 9 -4 9 8 -1 14 -11 17 -10 23 7 4 12 12
18 21 14 7 -3 14 -1 14 5 0 9 74 50 76 41 0 -2 8 4 18 13 10 10 24 18 33 18 9
0 13 6 10 14 -4 10 0 13 14 11 11 -2 18 -1 15 3 -5 9 15 26 34 30 8 2 20 10
26 17 6 8 14 12 17 8 4 -3 7 -1 7 5 0 7 5 12 12 12 18 0 118 72 112 81 -3 5 1
7 8 4 14 -6 74 42 71 56 -2 4 3 6 10 3 7 -2 25 6 39 18 60 53 77 65 82 60 3
-2 4 5 1 16 -3 16 0 19 12 15 10 -4 14 -2 9 5 -3 6 3 13 14 17 11 3 20 11 20
17 0 6 11 21 25 34 14 13 25 28 25 34 0 5 5 10 11 10 8 0 7 5 -1 16 -11 12
-11 15 1 12 31 -7 73 139 47 169 -5 7 -7 17 -3 23 3 5 2 10 -4 10 -5 0 -13 9
-16 21 -4 11 -20 25 -36 31 -16 5 -29 16 -29 23 0 7 -7 16 -16 19 -10 4 -13 2
-8 -7 4 -6 -5 -1 -21 13 -16 14 -25 18 -21 10 5 -9 2 -8 -7 2 -8 10 -16 15
-19 13 -3 -3 -18 1 -33 9 -16 8 -32 13 -37 10 -4 -3 -8 0 -8 5 0 6 -11 11 -25
11 -14 0 -25 5 -25 11 0 5 -4 7 -10 4 -5 -3 -10 -2 -10 3 0 5 -6 9 -12 10 -31
2 -63 13 -66 22 -2 6 -8 8 -13 4 -5 -3 -9 0 -9 5 0 6 -5 11 -11 11 -5 0 -7 -4
-4 -10 3 -6 -1 -7 -9 -4 -9 3 -16 11 -16 16 0 6 -7 8 -15 4 -8 -3 -15 -1 -15
4 0 6 -7 10 -15 10 -8 0 -15 4 -15 8 0 5 -7 9 -15 9 -8 0 -15 -4 -15 -9 0 -4
-9 1 -20 12 -11 11 -32 22 -47 25 -16 4 -45 15 -66 26 -22 10 -45 19 -53 19
-8 0 -14 6 -14 13 0 8 -4 7 -10 -3 -5 -8 -10 -10 -10 -5 0 13 -66 40 -92 38
-10 0 -18 4 -18 9 0 5 -4 7 -9 3 -5 -3 -15 0 -23 7 -14 13 -33 20 -55 21 -7 0
-13 4 -13 9 0 4 -9 8 -20 8 -11 0 -20 5 -20 11 0 5 -4 8 -9 4 -5 -3 -12 -1
-16 5 -4 6 -11 7 -17 4 -6 -4 -13 -2 -17 4 -3 5 -17 12 -31 13 -14 2 -31 10
-38 17 -8 7 -18 10 -23 7 -5 -4 -9 0 -9 7 0 9 -3 9 -10 -2 -5 -8 -10 -10 -10
-4 0 12 -52 37 -76 37 -8 0 -14 4 -14 7 0 7 -48 22 -75 24 -5 1 -16 7 -24 14
-7 7 -20 11 -28 8 -8 -3 -12 -2 -9 3 5 8 -58 27 -76 23 -5 -1 -8 3 -8 8 0 6
-7 10 -15 10 -8 0 -23 4 -33 9 -45 24 -87 39 -94 35 -4 -3 -8 -1 -8 4 0 5 -6
9 -12 9 -23 1 -42 8 -56 20 -7 7 -19 10 -26 7 -8 -3 -17 -1 -21 5 -3 6 -15 11
-25 11 -10 0 -21 6 -23 13 -4 9 -6 9 -6 -1 -1 -10 -5 -9 -17 3 -9 9 -29 19
-45 22 -16 3 -29 9 -29 14 0 5 -11 9 -23 9 -13 0 -27 3 -31 7 -3 4 -16 8 -28
10 -12 2 -30 11 -40 20 -14 13 -18 13 -18 2 -1 -10 -4 -9 -11 4 -6 9 -14 15
-20 12 -5 -4 -19 1 -31 9 -12 9 -33 16 -46 16 -13 0 -21 4 -18 8 2 4 -7 9 -22
10 -14 1 -29 8 -33 14 -5 7 -11 9 -15 5 -4 -4 -13 -2 -21 4 -7 6 -13 8 -13 3
0 -5 -4 -4 -8 1 -6 9 -88 43 -117 49 -5 1 -20 7 -31 14 -12 6 -24 8 -28 5 -3
-3 -6 -1 -6 5 0 7 -5 12 -11 12 -5 0 -7 -6 -3 -12 4 -7 -2 -5 -13 5 -11 9 -24
17 -30 17 -6 0 -14 6 -16 13 -4 9 -8 9 -15 -1 -7 -11 -10 -10 -16 3 -3 9 -14
15 -23 13 -10 -2 -26 6 -36 17 -10 11 -16 14 -12 8 3 -7 2 -13 -4 -13 -5 0
-11 5 -13 11 -2 6 -16 12 -31 12 -15 1 -27 5 -27 10 0 4 -9 7 -20 7 -11 0 -20
5 -20 10 0 6 -11 10 -25 10 -14 0 -25 5 -25 11 0 5 -4 8 -8 5 -5 -3 -20 1 -35
9 -14 7 -28 11 -31 7 -3 -3 -6 0 -6 8 0 10 -4 10 -17 -1 -9 -8 -14 -9 -11 -4
4 6 -7 18 -23 28 -17 9 -27 12 -23 6 3 -6 -5 -4 -18 5 -14 9 -28 13 -32 9 -4
-4 -11 -2 -15 5 -4 7 -17 14 -29 15 -12 0 -24 7 -26 14 -3 7 -10 13 -16 13 -6
0 -8 -4 -5 -10 3 -6 -1 -7 -9 -4 -9 3 -16 10 -16 15 0 5 -9 9 -20 9 -11 0 -20
5 -20 11 0 5 -4 7 -10 4 -5 -3 -10 -1 -10 6 0 8 -4 8 -15 -1 -12 -10 -16 -9
-21 3 -3 9 -14 14 -25 12 -11 -2 -22 2 -26 11 -4 11 -8 12 -20 3 -11 -10 -13
-9 -11 2 2 9 -6 14 -24 13 -15 0 -25 3 -23 6 2 3 -5 12 -17 19 -16 10 -19 10
-12 -1 5 -9 2 -8 -11 2 -10 8 -29 15 -42 15 -13 1 -28 7 -32 14 -5 8 -13 11
-19 7 -6 -3 -12 -1 -14 4 -2 6 -15 12 -30 14 -15 1 -33 8 -41 14 -8 7 -17 9
-20 5 -4 -3 -7 -1 -7 6 0 9 -8 11 -21 8 -11 -3 -22 0 -25 7 -2 6 -14 13 -26
13 -27 2 -78 23 -78 32 0 4 -9 8 -20 9 -42 4 -50 6 -50 12 0 4 -19 13 -42 21
-24 7 -54 19 -67 26 -14 6 -28 10 -33 7 -4 -3 -8 -1 -8 4 0 5 -6 9 -12 9 -25
1 -43 8 -55 23 -11 13 -12 13 -13 0 0 -13 -1 -13 -10 0 -5 8 -10 11 -10 6 0
-5 -6 -3 -14 3 -7 6 -25 12 -39 13 -14 1 -23 6 -21 10 5 7 -11 10 -33 7 -3 0
-10 6 -15 14 -5 10 -16 13 -30 9 -16 -4 -19 -2 -13 8 6 10 3 12 -13 8 -12 -4
-22 -2 -22 2 0 5 -16 12 -35 16 -19 3 -35 11 -35 17 0 6 -3 7 -7 4 -3 -4 -12
-2 -19 3 -6 6 -16 10 -20 9 -11 -3 -36 7 -91 33 -23 11 -49 18 -57 15 -8 -3
-17 1 -20 9 -3 9 -10 13 -15 9 -5 -3 -12 -1 -16 5 -4 6 -11 8 -16 5 -5 -4 -9
-1 -9 4 0 6 -9 11 -19 11 -11 0 -22 4 -25 9 -5 8 -35 16 -90 25 -11 1 -22 8
-24 14 -2 7 -14 12 -27 12 -13 0 -27 5 -30 10 -3 6 -15 10 -26 10 -10 0 -19 5
-19 12 0 6 -3 9 -6 6 -3 -4 -22 0 -41 8 -19 9 -38 13 -41 10 -3 -3 -10 1 -16
9 -6 8 -22 16 -36 18 -14 1 -35 9 -48 15 -12 7 -26 10 -31 8 -5 -3 -11 1 -15
9 -3 8 -12 12 -21 9 -8 -4 -17 0 -20 9 -4 8 -16 13 -30 11 -14 -1 -27 2 -31 7
-3 5 -14 9 -25 9 -10 0 -19 5 -19 11 0 5 -4 7 -10 4 -5 -3 -10 -2 -10 4 0 6
-7 8 -15 5 -8 -4 -15 -1 -15 6 0 6 -4 9 -9 5 -5 -3 -12 -1 -16 5 -4 6 -11 8
-16 5 -5 -4 -9 -2 -9 3 0 5 -6 9 -12 10 -38 3 -54 8 -66 19 -7 7 -20 9 -29 6
-11 -4 -14 -3 -9 5 5 8 -1 12 -18 12 -14 0 -26 5 -26 11 0 5 -4 7 -10 4 -5 -3
-10 0 -10 7 0 11 -2 10 -9 0 -7 -11 -10 -10 -15 3 -3 9 -12 15 -19 12 -6 -2
-17 3 -24 12 -7 9 -12 11 -13 4 0 -7 -12 -5 -37 7 -20 10 -44 15 -52 12 -9 -3
-12 -1 -8 5 6 9 -30 25 -65 27 -3 1 -10 4 -14 9 -4 4 -16 7 -26 7 -10 0 -18 5
-18 11 0 7 -12 10 -29 7 -17 -2 -28 -1 -25 3 6 11 -28 27 -43 22 -7 -3 -13 1
-13 7 0 7 -7 10 -15 6 -8 -3 -15 -1 -15 5 0 6 -4 7 -10 4 -5 -3 -10 -1 -10 5
0 7 -7 10 -15 7 -8 -4 -17 -2 -21 4 -3 6 -12 8 -19 5 -7 -2 -16 2 -19 11 -4 8
-13 13 -21 9 -8 -3 -15 0 -15 6 0 6 -3 8 -6 5 -4 -3 -16 -1 -28 6 -18 10 -85
36 -94 37 -2 0 0 -5 3 -11 4 -6 -2 -5 -14 3 -12 7 -21 16 -21 20 0 5 -12 8
-26 8 -17 0 -23 4 -18 13 5 9 4 9 -6 0 -9 -8 -19 -9 -31 -3 -12 7 -19 5 -23
-6z"/>
</g>
</svg>
